<svg width="100%" height="100%" viewBox="0 0 1313 238" version="1.1" xmlns="http://www.w3.org/2000/svg" xmlns:xlink="http://www.w3.org/1999/xlink" xml:space="preserve" style="fill-rule:evenodd;clip-rule:evenodd;stroke-linejoin:round;stroke-miterlimit:2;"><ellipse cx="80.47" cy="82.181" rx="80.47" ry="80.339" style="fill:#0bf082;"/><path d="M166.765,82.181l-86.3,-0l0,157.521l86.3,-0c0.003,-0 0.006,-0 0.009,-0c23.112,-0 42.13,-19.018 42.13,-42.13c-0,-15.137 -8.158,-29.153 -21.319,-36.631c13.161,-7.477 21.319,-21.494 21.319,-36.63c-0,-23.112 -19.018,-42.13 -42.13,-42.13c-0.003,-0 -0.006,-0 -0.009,-0Z" style="fill:#047af3;"/><path d="M80.47,162.52c44.441,-0 80.47,-35.971 80.47,-80.339l-80.475,-0l0,80.339l0.005,-0Z" style="fill:#0dc0cb;"/><text x="240.596px" y="178.655px" style="font-family:'Arial-BoldMT', 'Arial', sans-serif;font-weight:700;font-size:139.484px;fill:#fff;">Open Bootcamp</text></svg>